<svg viewBox="0 0 300 300" xmlns="http://www.w3.org/2000/svg">
  <defs>
    <linearGradient id="bg" x1="0" y1="0" x2="1" y2="1">
      <stop offset="0%" stop-color="#f6edf3"/>
      <stop offset="100%" stop-color="#eed2e3"/>
    </linearGradient>
  </defs>
  <rect width="300" height="300" rx="24" fill="url(#bg)"/>
  <rect x="4" y="4" width="292" height="292" rx="20" fill="none" stroke="#7e245a" stroke-width="1.5" opacity="0.25"/>
  
        <line x1="150" y1="135" x2="150" y2="180" stroke="#7e245a" stroke-width="4"/>
        <ellipse cx="178.0" cy="110.0" rx="16" ry="11" fill="#e5bcd5" stroke="#7e245a" stroke-width="2.5" transform="rotate(0 178.0 110.0)"/><ellipse cx="164.0" cy="134.2" rx="16" ry="11" fill="#e5bcd5" stroke="#7e245a" stroke-width="2.5" transform="rotate(60 164.0 134.2)"/><ellipse cx="136.0" cy="134.2" rx="16" ry="11" fill="#e5bcd5" stroke="#7e245a" stroke-width="2.5" transform="rotate(120 136.0 134.2)"/><ellipse cx="122.0" cy="110.0" rx="16" ry="11" fill="#e5bcd5" stroke="#7e245a" stroke-width="2.5" transform="rotate(180 122.0 110.0)"/><ellipse cx="136.0" cy="85.8" rx="16" ry="11" fill="#e5bcd5" stroke="#7e245a" stroke-width="2.5" transform="rotate(240 136.0 85.8)"/><ellipse cx="164.0" cy="85.8" rx="16" ry="11" fill="#e5bcd5" stroke="#7e245a" stroke-width="2.5" transform="rotate(300 164.0 85.8)"/>
        <circle cx="150" cy="110" r="14" fill="#d14768" stroke="#7e245a" stroke-width="2.5"/>
        
  <text x="150" y="225" text-anchor="middle" font-family="Noto Sans Thai, Noto Sans, sans-serif" font-size="17" font-weight="600" fill="#2d2d2d">กุหลาบหนู</text>
  <text x="150" y="278" text-anchor="middle" font-family="Noto Sans, sans-serif" font-size="12" fill="#7e245a" opacity="0.7">FL001</text>
</svg>